<svg xmlns="http://www.w3.org/2000/svg" width="64" height="64"><path d="M20.492 6a2 2 0 0 0-1.73 3c.112.195.262.356.427.5a1.98 1.98 0 0 0-.427.5 2.002 2.002 0 0 0 0 2c.112.195.262.356.427.5a1.98 1.98 0 0 0-.427.5 2.002 2.002 0 0 0 0 2c.112.195.262.356.427.5a1.98 1.98 0 0 0-.427.5 2.002 2.002 0 0 0 1.73 3 .5.5 0 1 0 0-1 .998.998 0 1 1 0-2 .5.5 0 0 0 .47-.313.5.5 0 0 0 .036-.146.5.5 0 0 0 .002-.047.5.5 0 0 0 0-.002.5.5 0 0 0-.004-.049.5.5 0 0 0 0-.002.5.5 0 0 0-.008-.046.5.5 0 0 0 0-.002.5.5 0 0 0-.004-.012.5.5 0 0 0-.01-.037.5.5 0 0 0-.015-.045.5.5 0 0 0-.002-.002.5.5 0 0 0-.021-.043.5.5 0 0 0-.002-.002.5.5 0 0 0-.024-.04.5.5 0 0 0-.002-.001.5.5 0 0 0-.031-.04.5.5 0 0 0-.033-.034.5.5 0 0 0-.002-.002.5.5 0 0 0-.035-.031.5.5 0 0 0-.002 0 .5.5 0 0 0-.028-.02.5.5 0 0 0-.013-.01.5.5 0 0 0-.043-.023.5.5 0 0 0-.002 0 .5.5 0 0 0-.043-.02.5.5 0 0 0-.002 0 .5.5 0 0 0-.045-.015.5.5 0 0 0-.004 0 .5.5 0 0 0-.045-.01.5.5 0 0 0-.004 0A.5.5 0 0 0 20.53 15a.5.5 0 0 0-.002 0 .5.5 0 0 0-.035 0 .998.998 0 1 1 0-2 .5.5 0 0 0 .508-.506.5.5 0 0 0 0-.002.5.5 0 0 0-.012-.097.5.5 0 0 0 0-.002.5.5 0 0 0-.078-.18.5.5 0 0 0 0-.002.5.5 0 0 0-.281-.195.5.5 0 0 0-.002 0 .5.5 0 0 0-.047-.01.5.5 0 0 0-.002 0 .5.5 0 0 0-.086-.006.998.998 0 1 1 0-2 .5.5 0 0 0 .47-.313.5.5 0 0 0 .036-.146.5.5 0 0 0 .002-.047.5.5 0 0 0 0-.002.5.5 0 0 0-.004-.049.5.5 0 0 0 0-.002.5.5 0 0 0-.008-.046.5.5 0 0 0 0-.002.5.5 0 0 0-.004-.012.5.5 0 0 0-.01-.037.5.5 0 0 0-.015-.045.5.5 0 0 0-.002-.002.5.5 0 0 0-.021-.043.5.5 0 0 0-.002-.002.5.5 0 0 0-.024-.04.5.5 0 0 0-.002-.001.5.5 0 0 0-.031-.04.5.5 0 0 0-.033-.034.5.5 0 0 0-.002-.002.5.5 0 0 0-.035-.031.5.5 0 0 0-.002 0 .5.5 0 0 0-.028-.02.5.5 0 0 0-.013-.01.5.5 0 0 0-.043-.023.5.5 0 0 0-.002 0 .5.5 0 0 0-.043-.02.5.5 0 0 0-.002 0 .5.5 0 0 0-.045-.015.5.5 0 0 0-.004 0 .5.5 0 0 0-.045-.01.5.5 0 0 0-.004 0A.5.5 0 0 0 20.53 9a.5.5 0 0 0-.002 0 .5.5 0 0 0-.035 0 .998.998 0 1 1 0-2A.5.5 0 0 0 21 6.494.5.5 0 0 0 20.492 6zM31.5 9a.5.5 0 0 0-.5.5.5.5 0 0 0 .5.5.5.5 0 0 0 .5-.5.5.5 0 0 0-.5-.5zM43 9c-1.099 0-2 .901-2 2s.901 2 2 2 2-.901 2-2-.901-2-2-2zm7.5 0a.5.5 0 0 0-.5.5.5.5 0 0 0 .5.5.5.5 0 0 0 .5-.5.5.5 0 0 0-.5-.5zM43 10c.558 0 1 .442 1 1s-.442 1-1 1-1-.442-1-1 .442-1 1-1zm-8.41 1.03a.5.5 0 0 0-.324.866 8.748 8.748 0 0 1 2.73 6.59 8.739 8.739 0 0 1-2.812 6.18l-5.057-5.057a.5.5 0 0 0-.361-.146.5.5 0 0 0-.424.25L6.066 58.25a.5.5 0 0 0 .684.684L45.287 36.66a.5.5 0 0 0 .104-.787L34.889 25.371a9.737 9.737 0 0 0 3.107-6.857 9.752 9.752 0 0 0-3.043-7.344.5.5 0 0 0-.363-.14zM30 13c-1.099 0-2 .901-2 2s.901 2 2 2 2-.901 2-2-.901-2-2-2zm24.275.244a.5.5 0 0 0-.41.756.998.998 0 0 1-.865 1.5 1 1 0 0 1-.867-.5.5.5 0 0 0-.358-.25.5.5 0 0 0-.097-.006.5.5 0 0 0-.002 0 .5.5 0 0 0-.004 0 .5.5 0 0 0-.143.03.5.5 0 0 0-.09.04.5.5 0 0 0-.04.028.5.5 0 0 0-.04.031.5.5 0 0 0-.033.035.5.5 0 0 0-.002.002.5.5 0 0 0-.056.59.998.998 0 0 1-.866 1.5 1 1 0 0 1-.867-.5.5.5 0 0 0-.13-.15.5.5 0 0 0-.04-.03.5.5 0 0 0-.002 0 .5.5 0 0 0-.476-.029.5.5 0 0 0-.002.002.5.5 0 0 0-.043.021.5.5 0 0 0-.041.028.5.5 0 0 0-.04.031.5.5 0 0 0-.032.035.5.5 0 0 0-.002.002.5.5 0 0 0-.075.559.5.5 0 0 0 .016.031.998.998 0 0 1-.865 1.5.997.997 0 0 1-.865-.5.5.5 0 0 0-.694-.186.5.5 0 0 0-.04.028.5.5 0 0 0-.04.031.5.5 0 0 0-.033.035.5.5 0 0 0-.002.002.5.5 0 0 0-.059.59.998.998 0 0 1-.865 1.5 1 1 0 0 1-.867-.5.5.5 0 0 0-.69-.186.5.5 0 0 0-.175.686 2.003 2.003 0 0 0 3.465 0c.112-.195.177-.406.218-.621.207.071.422.121.647.121.713 0 1.375-.382 1.732-1 .113-.195.177-.406.219-.621.207.071.421.121.646.121.714 0 1.376-.382 1.733-1 .113-.196.177-.407.219-.623.207.072.422.123.648.123a2 2 0 0 0 1.73-3 .5.5 0 0 0-.455-.256zM30 14c.558 0 1 .442 1 1s-.442 1-1 1-1-.442-1-1 .442-1 1-1zm-1.12 6.777 3.009 3.008-4.573-.3 1.565-2.708zM55.5 22a.5.5 0 0 0-.5.5.5.5 0 0 0 .5.5.5.5 0 0 0 .5-.5.5.5 0 0 0-.5-.5zm-37 2a.5.5 0 0 0-.5.5.5.5 0 0 0 .5.5.5.5 0 0 0 .5-.5.5.5 0 0 0-.5-.5zm8.258.45 6.203.407 5.363 5.364-14.355-.944 2.789-4.828zM40.5 26a.5.5 0 0 0-.5.5.5.5 0 0 0 .5.5.5.5 0 0 0 .5-.5.5.5 0 0 0-.5-.5zm9 .953c-2.525 0-5.05.708-7.264 2.123a.5.5 0 1 0 .54.842 12.485 12.485 0 0 1 13.449 0 .5.5 0 1 0 .539-.842 13.478 13.478 0 0 0-7.264-2.123zM13 30c-1.099 0-2 .901-2 2s.901 2 2 2 2-.901 2-2-.901-2-2-2zm10.41.242 15.988 1.053 4.827 4.826-.78.45-22.824-1.5 2.79-4.829zM13 31c.558 0 1 .442 1 1s-.442 1-1 1-1-.442-1-1 .442-1 1-1zm38 1c-1.099 0-2 .901-2 2s.901 2 2 2 2-.901 2-2-.901-2-2-2zm0 1c.558 0 1 .442 1 1s-.442 1-1 1-1-.442-1-1 .442-1 1-1zm-30.938 3.035 21.827 1.436-7.784 4.5-16.832-1.11 2.79-4.826zM55.5 40a.5.5 0 0 0-.5.5.5.5 0 0 0 .5.5.5.5 0 0 0 .5-.5.5.5 0 0 0-.5-.5zm-38.785 1.828 15.832 1.041-7.783 4.5-10.838-.715 2.789-4.826zM42.5 42a.5.5 0 0 0-.5.5.5.5 0 0 0 .5.5.5.5 0 0 0 .5-.5.5.5 0 0 0-.5-.5zm6.5 3c-1.099 0-2 .901-2 2s.901 2 2 2 2-.901 2-2-.901-2-2-2zm0 1c.558 0 1 .442 1 1s-.442 1-1 1-1-.442-1-1 .442-1 1-1zm-35.633 1.621 9.842.647-7.783 4.498-4.85-.319 2.791-4.826zM37.795 49c-.714 0-1.376.382-1.733 1a1.975 1.975 0 0 0-.218.621 1.974 1.974 0 0 0-.649-.121c-.713 0-1.375.382-1.732 1a1.971 1.971 0 0 0-.217.621 1.974 1.974 0 0 0-.648-.121c-.714 0-1.376.382-1.733 1a1.971 1.971 0 0 0-.217.621A1.974 1.974 0 0 0 30 53.5a2.002 2.002 0 0 0-1.732 3 .5.5 0 1 0 .867-.5.998.998 0 0 1 .865-1.5c.358 0 .686.19.865.5a.5.5 0 0 0 .131.15.5.5 0 0 0 .04.03.5.5 0 0 0 .001 0 .5.5 0 0 0 .088.045.5.5 0 0 0 .197.03.5.5 0 0 0 .05-.003.5.5 0 0 0 .142-.043.5.5 0 0 0 .002 0 .5.5 0 0 0 .043-.023.5.5 0 0 0 .002 0 .5.5 0 0 0 .04-.028.5.5 0 0 0 .174-.238.5.5 0 0 0 .028-.147.5.5 0 0 0 0-.002.5.5 0 0 0-.008-.1.5.5 0 0 0-.01-.046.5.5 0 0 0 0-.002.5.5 0 0 0-.015-.047.5.5 0 0 0-.038-.076.998.998 0 0 1 .866-1.5 1 1 0 0 1 .867.5.5.5 0 0 0 .17.18.5.5 0 0 0 .088.045.5.5 0 0 0 .002 0 .5.5 0 0 0 .195.03.5.5 0 0 0 .049-.003.5.5 0 0 0 .049-.01.5.5 0 0 0 .002 0 .5.5 0 0 0 .046-.013.5.5 0 0 0 .092-.043.5.5 0 0 0 .041-.028.5.5 0 0 0 .074-.068.5.5 0 0 0 .032-.037.5.5 0 0 0 0-.002.5.5 0 0 0 .05-.084.5.5 0 0 0 0-.002.5.5 0 0 0 .045-.192.5.5 0 0 0 0-.002.5.5 0 0 0-.005-.097.5.5 0 0 0 0-.002.5.5 0 0 0-.012-.047.5.5 0 0 0 0-.002.5.5 0 0 0-.053-.123.998.998 0 0 1 .867-1.5c.358 0 .686.19.865.5a.5.5 0 0 0 .17.18.5.5 0 0 0 .09.045.5.5 0 0 0 .096.025.5.5 0 0 0 .049.006.5.5 0 0 0 .002 0 .5.5 0 0 0 .049 0 .5.5 0 0 0 .279-.098.5.5 0 0 0 .039-.033.5.5 0 0 0 .035-.033.5.5 0 0 0 0-.002.5.5 0 0 0 .031-.037.5.5 0 0 0 0-.002.5.5 0 0 0 .051-.084.5.5 0 0 0 0-.002.5.5 0 0 0 .041-.143.5.5 0 0 0 .004-.049.5.5 0 0 0 0-.002.5.5 0 0 0-.006-.097.5.5 0 0 0 0-.002.5.5 0 0 0-.012-.047.5.5 0 0 0 0-.002.5.5 0 0 0-.052-.123.998.998 0 0 1 .867-1.5c.358 0 .686.19.865.5a.5.5 0 0 0 .694.186.5.5 0 0 0 .171-.686 2 2 0 0 0-1.73-1zm4.705 4a.5.5 0 0 0-.5.5.5.5 0 0 0 .5.5.5.5 0 0 0 .5-.5.5.5 0 0 0-.5-.5zm-32.48.412 3.85.254-6 3.467 2.15-3.72zM23.5 55a.5.5 0 0 0-.5.5.5.5 0 0 0 .5.5.5.5 0 0 0 .5-.5.5.5 0 0 0-.5-.5z" color="#000" font-family="sans-serif" font-weight="400" overflow="visible" style="line-height:normal;text-indent:0;text-align:start;text-decoration-line:none;text-decoration-style:solid;text-decoration-color:#000;text-transform:none;block-progression:tb;white-space:normal;isolation:auto;mix-blend-mode:normal;solid-color:#000;solid-opacity:1"/></svg>