<svg xmlns="http://www.w3.org/2000/svg" data-name="Layer 1" viewBox="0 0 512 512"><path fill="#1e1f27" d="M142.378 296.15a50.85 50.85 0 1 0 50.85 50.85 50.908 50.908 0 0 0-50.85-50.85Zm0 86.7a35.85 35.85 0 1 1 35.85-35.85 35.89 35.89 0 0 1-35.85 35.85ZM511.99 154.823c-.003-.145-.004-.29-.016-.434l-.01-.092c-.01-.098-.026-.194-.039-.291-.016-.121-.03-.243-.052-.364l-.014-.068c-.025-.13-.059-.256-.09-.384-.024-.095-.045-.19-.073-.285-.003-.012-.005-.024-.009-.035l-.005-.017c-.046-.151-.101-.298-.156-.446-.02-.057-.036-.115-.058-.172l-.053-.133-.006-.016-30.81-77.35a13.448 13.448 0 0 0-1.689-3.997c-.082-.142-.163-.283-.253-.418l-.074-.1a7.383 7.383 0 0 0-.431-.563c-.136-.175-.259-.357-.404-.527a13.483 13.483 0 0 0-10.253-4.717H215.918a13.44 13.44 0 0 0-12.892 9.492l-9.153 29.443h-43.995v-52.65l36.993-37.964A7.5 7.5 0 0 0 176.13 2.266l-39.122 40.15a7.5 7.5 0 0 0-2.13 5.234v55.699H61.454a17.441 17.441 0 0 0-16.184 10.845l-10.541 25.63H17.5a17.52 17.52 0 0 0-17.5 17.5V179.5A17.52 17.52 0 0 0 17.5 197h2.56l28.054 294.64A22.426 22.426 0 0 0 70.52 512h388.987c.02 0 .04-.004.061-.004a7.641 7.641 0 0 0 .884-.064c.093-.012.186-.027.279-.042a7.484 7.484 0 0 0 .793-.175c.05-.014.101-.023.15-.038a7.487 7.487 0 0 0 .917-.35c.061-.027.122-.058.183-.087a7.535 7.535 0 0 0 .87-.491l.016-.01.012-.007.037-.025 42.727-28.484a12.478 12.478 0 0 0 5.564-10.4V155.01c0-.063-.008-.124-.01-.187Zm-35.167-49.029 17.674 44.37-25.763 7.673ZM59.142 119.9a2.49 2.49 0 0 1 2.311-1.55h161.849a2.49 2.49 0 0 1 2.311 1.55l8.195 19.926H50.947ZM17.5 182a2.502 2.502 0 0 1-2.5-2.5v-22.175a2.502 2.502 0 0 1 2.5-2.5H244.979l.026.002.04-.002h22.21a2.502 2.502 0 0 1 2.5 2.5V179.5a2.502 2.502 0 0 1-2.5 2.5Zm214.378 201.395-10.175 106.818a7.464 7.464 0 0 1-7.442 6.787H211.5l-.02.001H70.52a7.48 7.48 0 0 1-7.473-6.789L35.127 197h214.505L231.89 383.262l-.012.133Zm24.59-99.983 148.032.002a2.502 2.502 0 0 1 2.5 2.5v88.172a2.502 2.502 0 0 1-2.5 2.5l-156.906.001ZM452 497H235.44a22.703 22.703 0 0 0 1.196-5.367l9.529-100.046H404.5a17.52 17.52 0 0 0 17.5-17.5v-88.174a17.52 17.52 0 0 0-17.5-17.5l-146.602-.002 6.801-71.41h2.556a17.52 17.52 0 0 0 17.5-17.5v-3.589H452Zm1.076-336.088H284.755v-3.587a17.52 17.52 0 0 0-17.5-17.5h-17.228l-10.54-25.631a17.441 17.441 0 0 0-16.185-10.845h-13.72l7.44-23.936h248.722ZM497 470.487l-30 20V174.004l30-8.935Z"/></svg>